<?xml version="1.0" encoding="UTF-8"?>
<!DOCTYPE svg PUBLIC "-//W3C//DTD SVG 1.1//EN" "http://www.w3.org/Graphics/SVG/1.1/DTD/svg11.dtd">
<svg xmlns="http://www.w3.org/2000/svg" version="1.1" width="520px" height="458px" style="shape-rendering:geometricPrecision; text-rendering:geometricPrecision; image-rendering:optimizeQuality; fill-rule:evenodd; clip-rule:evenodd" xmlns:xlink="http://www.w3.org/1999/xlink">
<g><path style="opacity:1" fill="#fdfdfd" d="M -0.5,-0.5 C 172.833,-0.5 346.167,-0.5 519.5,-0.5C 519.5,152.167 519.5,304.833 519.5,457.5C 346.167,457.5 172.833,457.5 -0.5,457.5C -0.5,304.833 -0.5,152.167 -0.5,-0.5 Z"/></g>
<g><path style="opacity:1" fill="#111111" d="M 249.5,54.5 C 252.833,54.5 256.167,54.5 259.5,54.5C 259.5,55.8333 259.5,57.1667 259.5,58.5C 256.428,58.1826 253.428,58.5159 250.5,59.5C 250.709,60.086 251.043,60.586 251.5,61C 255.159,60.9628 258.326,62.1295 261,64.5C 262.041,67.6363 261.207,70.1363 258.5,72C 254.514,72.4988 250.514,72.6655 246.5,72.5C 246.238,71.0222 246.571,69.6888 247.5,68.5C 251.063,70.0371 254.397,69.7037 257.5,67.5C 257.291,66.914 256.957,66.414 256.5,66C 253.308,65.8029 250.308,64.9696 247.5,63.5C 245.922,59.9579 246.588,56.9579 249.5,54.5 Z"/></g>
<g><path style="opacity:1" fill="#0f0f0f" d="M 265.5,54.5 C 270.537,54.4126 275.537,54.746 280.5,55.5C 280.5,56.5 280.5,57.5 280.5,58.5C 278.5,58.5 276.5,58.5 274.5,58.5C 274.5,59.8333 274.5,61.1667 274.5,62.5C 274.5,65.8333 274.5,69.1667 274.5,72.5C 272.833,72.5 271.167,72.5 269.5,72.5C 269.669,67.8189 270.002,63.1522 270.5,58.5C 269.081,57.5489 267.415,57.2155 265.5,57.5C 265.5,56.5 265.5,55.5 265.5,54.5 Z"/></g>
<g><path style="opacity:1" fill="#161616" d="M 235.5,56.5 C 237.167,56.5 238.833,56.5 240.5,56.5C 241.129,62.5746 242.129,68.5746 243.5,74.5C 241.833,74.5 240.167,74.5 238.5,74.5C 238.015,68.4102 237.015,62.4102 235.5,56.5 Z"/></g>
<g><path style="opacity:1" fill="#828282" d="M 265.5,54.5 C 265.5,55.5 265.5,56.5 265.5,57.5C 267.415,57.2155 269.081,57.5489 270.5,58.5C 268.5,58.5 266.5,58.5 264.5,58.5C 264.232,56.901 264.566,55.5676 265.5,54.5 Z"/></g>
<g><path style="opacity:1" fill="#151515" d="M 285.5,56.5 C 287.288,56.2148 288.955,56.5481 290.5,57.5C 289.144,62.7802 287.977,68.1136 287,73.5C 285.644,74.3802 284.144,74.7135 282.5,74.5C 283.507,68.4867 284.507,62.4867 285.5,56.5 Z"/></g>
<g><path style="opacity:1" fill="#939393" d="M 280.5,55.5 C 281.434,56.5676 281.768,57.901 281.5,59.5C 279.5,59.5 277.5,59.5 275.5,59.5C 275.737,60.791 275.404,61.791 274.5,62.5C 274.5,61.1667 274.5,59.8333 274.5,58.5C 276.5,58.5 278.5,58.5 280.5,58.5C 280.5,57.5 280.5,56.5 280.5,55.5 Z"/></g>
<g><path style="opacity:1" fill="#131313" d="M 217.5,61.5 C 219.167,61.5 220.833,61.5 222.5,61.5C 223.707,65.7862 224.707,70.1195 225.5,74.5C 228.028,73.9886 230.528,73.3219 233,72.5C 234.607,72.7692 235.774,73.6026 236.5,75C 231.835,76.611 227.168,78.111 222.5,79.5C 221.242,73.3914 219.575,67.3914 217.5,61.5 Z"/></g>
<g><path style="opacity:1" fill="#121212" d="M 298.5,60.5 C 303.126,59.7004 306.96,61.0337 310,64.5C 310.601,65.9653 310.101,66.9653 308.5,67.5C 304.876,63.6989 301.376,63.6989 298,67.5C 296.817,74.0368 299.65,76.7034 306.5,75.5C 306.5,76.8333 306.5,78.1667 306.5,79.5C 297.669,80.1625 293.169,76.1625 293,67.5C 294.666,65.0043 296.5,62.671 298.5,60.5 Z"/></g>
<g><path style="opacity:1" fill="#0a0a0a" d="M 204.5,67.5 C 210.225,71.0462 215.559,75.2129 220.5,80C 219.421,80.956 218.255,81.7894 217,82.5C 215.867,80.7888 214.367,80.2888 212.5,81C 208.548,81.7933 206.214,84.1266 205.5,88C 204.552,88.4828 203.552,88.6495 202.5,88.5C 202.636,83.3035 202.303,78.1368 201.5,73C 201.12,70.2966 202.12,68.4632 204.5,67.5 Z"/></g>
<g><path style="opacity:1" fill="#131313" d="M 321.5,69.5 C 324.588,69.367 326.588,70.7003 327.5,73.5C 326.863,79.2377 325.863,84.9044 324.5,90.5C 322.323,89.3237 320.989,87.4904 320.5,85C 318.668,84.2515 317.001,83.2515 315.5,82C 313.633,81.2888 312.133,81.7888 311,83.5C 309.745,82.7894 308.579,81.956 307.5,81C 312.065,76.9245 316.732,73.0912 321.5,69.5 Z"/></g>
<g><path style="opacity:1" fill="#d1d1d1" d="M 205.5,72.5 C 207.63,74.1271 209.63,75.9604 211.5,78C 209.833,78.8333 208.167,79.6667 206.5,80.5C 205.52,77.9135 205.187,75.2469 205.5,72.5 Z"/></g>
<g><path style="opacity:1" fill="#dfdfdf" d="M 321.5,74.5 C 323.624,80.9324 321.958,82.4324 316.5,79C 318.618,77.9509 320.284,76.4509 321.5,74.5 Z"/></g>
<g><path style="opacity:1" fill="#101010" d="M 186.5,78.5 C 191.339,77.6766 193.673,79.6766 193.5,84.5C 198.494,84.329 200.328,86.6624 199,91.5C 195.879,95.4542 192.046,97.9542 187.5,99C 184.167,94.6667 180.833,90.3333 177.5,86C 180.69,83.6356 183.69,81.1356 186.5,78.5 Z"/></g>
<g><path style="opacity:1" fill="#e7e7e7" d="M 187.5,82.5 C 188.995,82.4148 189.995,83.0815 190.5,84.5C 188.569,88.0207 186.236,88.6874 183.5,86.5C 184.549,84.7844 185.882,83.4511 187.5,82.5 Z"/></g>
<g><path style="opacity:1" fill="#111111" d="M 345.5,84.5 C 348.464,86.9619 351.297,89.6286 354,92.5C 354.947,99.8854 351.78,102.719 344.5,101C 343.315,99.647 341.981,98.4803 340.5,97.5C 339.167,98.5 337.833,99.5 336.5,100.5C 334.888,99.4416 334.055,98.1083 334,96.5C 338.037,92.631 341.87,88.631 345.5,84.5 Z"/></g>
<g><path style="opacity:1" fill="#e2e2e2" d="M 192.5,87.5 C 193.995,87.4148 194.995,88.0815 195.5,89.5C 194.167,91.5 192.5,93.1667 190.5,94.5C 189.354,93.8551 188.354,93.0217 187.5,92C 189.063,90.264 190.73,88.764 192.5,87.5 Z"/></g>
<g><path style="opacity:1" fill="#030303" d="M 253.5,91.5 C 282.373,90.1184 307.373,99.1184 328.5,118.5C 296.282,123.181 267.115,135.181 241,154.5C 235.889,163.06 231.056,171.726 226.5,180.5C 225.505,169.346 225.172,158.012 225.5,146.5C 227.377,138.373 228.711,130.04 229.5,121.5C 231.229,111.971 234.895,103.304 240.5,95.5C 244.371,94.1598 248.371,93.3265 252.5,93C 253.056,92.6174 253.389,92.1174 253.5,91.5 Z"/></g>
<g><path style="opacity:1" fill="#eaeaea" d="M 345.5,90.5 C 349.265,91.3905 350.598,93.5572 349.5,97C 346.404,97.9267 344.07,96.9267 342.5,94C 343.71,92.9609 344.71,91.7942 345.5,90.5 Z"/></g>
<g><path style="opacity:1" fill="#636363" d="M 253.5,91.5 C 253.389,92.1174 253.056,92.6174 252.5,93C 248.371,93.3265 244.371,94.1598 240.5,95.5C 241.347,94.0337 242.68,93.2004 244.5,93C 247.478,92.304 250.478,91.804 253.5,91.5 Z"/></g>
<g><path style="opacity:1" fill="#040404" d="M 226.5,121.5 C 224.367,126.844 223.367,132.511 223.5,138.5C 221.335,155.095 221.002,171.762 222.5,188.5C 227.707,197.749 233.04,206.915 238.5,216C 237.906,216.464 237.239,216.631 236.5,216.5C 214.974,205.495 195.807,191.161 179,173.5C 176.241,169.593 173.741,165.593 171.5,161.5C 172.766,153.778 175.266,146.444 179,139.5C 192.361,118.146 211.027,103.479 235,95.5C 235.5,95.8333 236,96.1667 236.5,96.5C 231.21,104.033 227.877,112.367 226.5,121.5 Z"/></g>
<g><path style="opacity:1" fill="#131313" d="M 360.5,99.5 C 365.432,103.358 367.598,108.358 367,114.5C 364.872,117.458 362.206,118.124 359,116.5C 357.815,118.377 356.815,120.377 356,122.5C 354.536,121.541 353.703,120.208 353.5,118.5C 354.223,116.218 354.557,113.884 354.5,111.5C 352.516,111.383 350.85,112.05 349.5,113.5C 347.717,112.652 347.217,111.319 348,109.5C 352.328,106.268 356.494,102.934 360.5,99.5 Z"/></g>
<g><path style="opacity:1" fill="#131313" d="M 161.5,102.5 C 168.002,104.041 174.336,106.041 180.5,108.5C 179.833,109.833 178.833,110.833 177.5,111.5C 176.28,110.289 175.113,110.289 174,111.5C 173.385,113.116 172.385,114.449 171,115.5C 170.28,117.112 170.446,118.612 171.5,120C 170.299,120.903 169.465,122.069 169,123.5C 165.748,118.666 162.748,113.666 160,108.5C 159.591,106.305 160.091,104.305 161.5,102.5 Z"/></g>
<g><path style="opacity:1" fill="#e8e8e8" d="M 359.5,105.5 C 362.754,106.673 363.92,109.006 363,112.5C 360.309,113.207 358.475,112.041 357.5,109C 357.978,107.697 358.645,106.531 359.5,105.5 Z"/></g>
<g><path style="opacity:1" fill="#ececec" d="M 164.5,107.5 C 166.441,107.869 168.275,108.536 170,109.5C 170.345,111.201 169.678,112.534 168,113.5C 166.558,111.609 165.391,109.609 164.5,107.5 Z"/></g>
<g><path style="opacity:1" fill="#131313" d="M 152.5,118.5 C 157.713,118.087 160.38,120.42 160.5,125.5C 162.895,124.637 165.229,124.637 167.5,125.5C 166.96,126.748 166.293,127.915 165.5,129C 162.349,128.988 159.682,129.988 157.5,132C 159.555,132.687 161.221,133.854 162.5,135.5C 162.081,136.672 161.415,137.672 160.5,138.5C 155.008,135.921 149.675,133.088 144.5,130C 146.34,125.451 149.006,121.617 152.5,118.5 Z"/></g>
<g><path style="opacity:1" fill="#111111" d="M 368.5,118.5 C 375.561,119.249 378.894,123.249 378.5,130.5C 377.5,130.5 376.5,130.5 375.5,130.5C 375.501,126.794 373.835,124.461 370.5,123.5C 371.112,127.163 371.279,130.83 371,134.5C 368.075,137.059 365.075,137.059 362,134.5C 359.668,131.178 358.502,127.511 358.5,123.5C 359.833,123.5 361.167,123.5 362.5,123.5C 361.945,127.387 363.279,130.387 366.5,132.5C 367.513,129.541 367.513,126.541 366.5,123.5C 366.437,121.486 367.103,119.819 368.5,118.5 Z"/></g>
<g><path style="opacity:1" fill="#ececec" d="M 153.5,122.5 C 155.484,122.484 156.484,123.484 156.5,125.5C 155.472,131.423 153.472,131.923 150.5,127C 151.315,125.357 152.315,123.857 153.5,122.5 Z"/></g>
<g><path style="opacity:1" fill="#040404" d="M 354.5,211.5 C 352.945,208.06 351.112,204.727 349,201.5C 331.852,183.183 312.019,168.517 289.5,157.5C 287.664,155.412 285.331,154.079 282.5,153.5C 271.833,152.833 261.167,152.167 250.5,151.5C 270.85,138.398 292.85,128.898 316.5,123C 322.167,122.333 327.833,122.333 333.5,123C 356.096,148.925 363.096,178.425 354.5,211.5 Z"/></g>
<g><path style="opacity:1" fill="#a8a8a8" d="M 226.5,121.5 C 226.58,127.478 225.58,133.145 223.5,138.5C 223.367,132.511 224.367,126.844 226.5,121.5 Z"/></g>
<g><path style="opacity:1" fill="#535353" d="M 229.5,121.5 C 228.711,130.04 227.377,138.373 225.5,146.5C 225.732,137.86 227.065,129.527 229.5,121.5 Z"/></g>
<g><path style="opacity:1" fill="#151515" d="M 144.5,138.5 C 150.386,137.858 154.552,140.191 157,145.5C 157.754,152.995 154.421,157.329 147,158.5C 139.882,156.54 137.215,151.874 139,144.5C 140.36,141.977 142.193,139.977 144.5,138.5 Z"/></g>
<g><path style="opacity:1" fill="#f3f3f3" d="M 144.5,143.5 C 150.337,142.518 153.17,144.851 153,150.5C 150.162,154.035 146.995,154.368 143.5,151.5C 142.025,148.557 142.358,145.891 144.5,143.5 Z"/></g>
<g><path style="opacity:1" fill="#0e0e0e" d="M 371.5,147.5 C 376.347,147.544 381.013,148.377 385.5,150C 388.29,152.21 389.123,155.044 388,158.5C 386.89,160.037 385.39,160.703 383.5,160.5C 383.769,162.429 383.269,164.095 382,165.5C 380.713,162.855 378.547,161.855 375.5,162.5C 375.5,163.5 375.5,164.5 375.5,165.5C 374.5,165.5 373.5,165.5 372.5,165.5C 372.084,161.062 371.084,156.729 369.5,152.5C 369.437,150.486 370.103,148.819 371.5,147.5 Z"/></g>
<g><path style="opacity:1" fill="#d1d1d1" d="M 374.5,150.5 C 375.675,150.281 376.675,150.614 377.5,151.5C 376.333,153.167 375.167,154.833 374,156.5C 371.945,154.29 372.111,152.29 374.5,150.5 Z"/></g>
<g><path style="opacity:1" fill="#757575" d="M 250.5,151.5 C 261.167,152.167 271.833,152.833 282.5,153.5C 271.162,153.667 259.828,153.5 248.5,153C 249.044,152.283 249.711,151.783 250.5,151.5 Z"/></g>
<g><path style="opacity:1" fill="#dedede" d="M 381.5,153.5 C 383.346,153.222 384.68,153.889 385.5,155.5C 383.604,156.466 381.604,156.799 379.5,156.5C 379.5,157.5 379.5,158.5 379.5,159.5C 378.448,159.649 377.448,159.483 376.5,159C 377.692,156.645 379.359,154.812 381.5,153.5 Z"/></g>
<g><path style="opacity:1" fill="#050505" d="M 287.5,158.5 C 303.143,167.63 318.143,177.796 332.5,189C 341.253,196.235 348.253,204.735 353.5,214.5C 347.695,237.149 335.028,254.982 315.5,268C 308.54,272.314 301.207,275.814 293.5,278.5C 292.033,279.292 290.7,279.292 289.5,278.5C 293.385,271.637 296.052,264.303 297.5,256.5C 302.1,233.407 303.6,210.074 302,186.5C 296.898,177.071 291.398,167.905 285.5,159C 286.094,158.536 286.761,158.369 287.5,158.5 Z"/></g>
<g><path style="opacity:1" fill="#0e0e0e" d="M 138.5,162.5 C 143.041,161.769 147.041,162.769 150.5,165.5C 151.448,170.435 151.781,175.435 151.5,180.5C 145.509,180.034 139.509,179.701 133.5,179.5C 132.374,172.879 134.041,167.213 138.5,162.5 Z"/></g>
<g><path style="opacity:1" fill="#efefef" d="M 140.5,166.5 C 146.656,166.325 149.323,169.325 148.5,175.5C 144.833,175.5 141.167,175.5 137.5,175.5C 136.924,171.888 137.924,168.888 140.5,166.5 Z"/></g>
<g><path style="opacity:1" fill="#616161" d="M 225.5,146.5 C 225.172,158.012 225.505,169.346 226.5,180.5C 226.44,181.043 226.107,181.376 225.5,181.5C 224.176,169.673 224.176,158.007 225.5,146.5 Z"/></g>
<g><path style="opacity:1" fill="#030303" d="M 232.5,217.5 C 235.55,219.692 238.883,221.358 242.5,222.5C 253.167,223.167 263.833,223.833 274.5,224.5C 255.854,235.834 236.187,244.834 215.5,251.5C 207.577,253.185 199.577,253.685 191.5,253C 171.477,228.75 163.477,200.917 167.5,169.5C 168.232,168.192 169.066,166.858 170,165.5C 176.033,175.87 183.867,184.704 193.5,192C 205.572,201.903 218.572,210.403 232.5,217.5 Z"/></g>
<g><path style="opacity:1" fill="#d7d7d7" d="M 171.5,161.5 C 173.741,165.593 176.241,169.593 179,173.5C 195.807,191.161 214.974,205.495 236.5,216.5C 234.901,216.232 233.568,216.566 232.5,217.5C 218.572,210.403 205.572,201.903 193.5,192C 183.867,184.704 176.033,175.87 170,165.5C 169.066,166.858 168.232,168.192 167.5,169.5C 166.756,166.05 168.09,164.384 171.5,164.5C 171.5,163.5 171.5,162.5 171.5,161.5 Z"/></g>
<g><path style="opacity:1" fill="#747474" d="M 391.5,178.5 C 385.833,178.5 380.167,178.5 374.5,178.5C 374.5,179.5 374.5,180.5 374.5,181.5C 376.099,181.232 377.432,181.566 378.5,182.5C 376.833,182.5 375.167,182.5 373.5,182.5C 373.5,180.833 373.5,179.167 373.5,177.5C 379.69,177.177 385.69,177.51 391.5,178.5 Z"/></g>
<g><path style="opacity:1" fill="#111111" d="M 391.5,178.5 C 391.5,179.833 391.5,181.167 391.5,182.5C 389.167,182.5 386.833,182.5 384.5,182.5C 384.5,185.167 384.5,187.833 384.5,190.5C 386.833,190.5 389.167,190.5 391.5,190.5C 391.5,192.167 391.5,193.833 391.5,195.5C 385.5,195.5 379.5,195.5 373.5,195.5C 373.5,193.833 373.5,192.167 373.5,190.5C 375.833,190.5 378.167,190.5 380.5,190.5C 381.036,187.302 380.369,184.635 378.5,182.5C 377.432,181.566 376.099,181.232 374.5,181.5C 374.5,180.5 374.5,179.5 374.5,178.5C 380.167,178.5 385.833,178.5 391.5,178.5 Z"/></g>
<g><path style="opacity:1" fill="#151515" d="M 149.5,183.5 C 150.649,183.791 151.316,184.624 151.5,186C 149.865,190.01 149.198,194.177 149.5,198.5C 152.91,198.384 154.244,200.05 153.5,203.5C 147.169,202.001 141.003,200.001 135,197.5C 134.192,195.421 134.359,193.421 135.5,191.5C 140.555,189.312 145.222,186.645 149.5,183.5 Z"/></g>
<g><path style="opacity:1" fill="#e5e5e5" d="M 143.5,191.5 C 145.256,192.552 145.923,194.219 145.5,196.5C 138.877,196.089 138.21,194.423 143.5,191.5 Z"/></g>
<g><path style="opacity:1" fill="#dbdbdb" d="M 289.5,157.5 C 312.019,168.517 331.852,183.183 349,201.5C 351.112,204.727 352.945,208.06 354.5,211.5C 353.596,212.209 353.263,213.209 353.5,214.5C 348.253,204.735 341.253,196.235 332.5,189C 318.143,177.796 303.143,167.63 287.5,158.5C 288.492,158.672 289.158,158.338 289.5,157.5 Z"/></g>
<g><path style="opacity:1" fill="#030303" d="M 298.5,194.5 C 299.166,198.653 299.499,202.987 299.5,207.5C 299.088,218.853 298.421,230.186 297.5,241.5C 295.679,253.511 292.345,265.177 287.5,276.5C 286.023,278.807 284.023,280.64 281.5,282C 271.874,283.244 262.208,283.744 252.5,283.5C 248.79,281.864 244.79,281.198 240.5,281.5C 237.495,279.723 234.162,278.723 230.5,278.5C 217.91,273.875 206.577,267.209 196.5,258.5C 200.573,256.865 204.906,255.865 209.5,255.5C 211.435,254.85 213.435,254.517 215.5,254.5C 237.805,248.01 258.471,238.344 277.5,225.5C 279.426,224.758 281.259,223.758 283,222.5C 287.925,212.979 293.092,203.645 298.5,194.5 Z"/></g>
<g><path style="opacity:1" fill="#111111" d="M 374.5,200.5 C 379.937,200.363 385.27,201.03 390.5,202.5C 389.754,203.736 389.421,205.07 389.5,206.5C 385.989,205.942 382.489,205.276 379,204.5C 376.055,203.944 374.555,205.11 374.5,208C 374.439,209.711 375.106,211.044 376.5,212C 379.789,212.882 383.123,213.548 386.5,214C 387.38,215.356 387.714,216.856 387.5,218.5C 381.867,218.136 376.7,216.47 372,213.5C 369.606,208.527 370.44,204.194 374.5,200.5 Z"/></g>
<g><path style="opacity:1" fill="#8c8c8c" d="M 298.5,194.5 C 298.56,193.957 298.893,193.624 299.5,193.5C 300.643,207.84 300.476,222.173 299,236.5C 298.802,238.382 298.302,240.048 297.5,241.5C 298.421,230.186 299.088,218.853 299.5,207.5C 299.499,202.987 299.166,198.653 298.5,194.5 Z"/></g>
<g><path style="opacity:1" fill="#141414" d="M 150.5,204.5 C 151.822,204.33 152.989,204.663 154,205.5C 155.514,209.496 156.014,213.496 155.5,217.5C 150.694,218.91 145.861,220.243 141,221.5C 138.035,220.278 137.868,218.778 140.5,217C 144.145,216.005 147.812,215.172 151.5,214.5C 150.949,211.193 150.616,207.86 150.5,204.5 Z"/></g>
<g><path style="opacity:1" fill="#101010" d="M 368.5,218.5 C 374.407,220.247 380.073,222.58 385.5,225.5C 385.081,226.672 384.415,227.672 383.5,228.5C 379.021,229.715 374.688,231.215 370.5,233C 373.208,234.069 375.875,235.236 378.5,236.5C 379.429,237.689 379.762,239.022 379.5,240.5C 373.845,239.003 368.345,237.003 363,234.5C 362.289,232.633 362.789,231.133 364.5,230C 368.608,228.973 372.608,227.64 376.5,226C 373.792,224.931 371.125,223.764 368.5,222.5C 367.374,221.192 367.374,219.858 368.5,218.5 Z"/></g>
<g><path style="opacity:1" fill="#555555" d="M 242.5,222.5 C 253.838,222.333 265.172,222.5 276.5,223C 275.944,223.383 275.611,223.883 275.5,224.5C 275.167,224.5 274.833,224.5 274.5,224.5C 263.833,223.833 253.167,223.167 242.5,222.5 Z"/></g>
<g><path style="opacity:1" fill="#121212" d="M 149.5,223.5 C 156.62,222.126 160.953,224.959 162.5,232C 162.297,234.406 161.297,236.406 159.5,238C 155.712,239.978 151.879,241.811 148,243.5C 146.991,241.975 146.491,240.308 146.5,238.5C 150.362,237.572 154.029,236.072 157.5,234C 159.35,230.253 158.183,228.086 154,227.5C 150.221,229.157 146.388,230.323 142.5,231C 141.269,229.817 141.269,228.651 142.5,227.5C 145.059,226.392 147.392,225.059 149.5,223.5 Z"/></g>
<g><path style="opacity:1" fill="#101010" d="M 163.5,239.5 C 169.987,241.417 172.487,245.751 171,252.5C 167.608,258.467 162.774,259.967 156.5,257C 153.924,254.349 152.591,251.182 152.5,247.5C 153.833,247.5 155.167,247.5 156.5,247.5C 157.593,254.985 161.093,256.318 167,251.5C 167.868,247.328 166.368,244.162 162.5,242C 163.252,241.329 163.586,240.496 163.5,239.5 Z"/></g>
<g><path style="opacity:1" fill="#dbdbdb" d="M 274.5,224.5 C 274.833,224.5 275.167,224.5 275.5,224.5C 275.842,225.338 276.508,225.672 277.5,225.5C 258.471,238.344 237.805,248.01 215.5,254.5C 216.347,253.034 217.68,252.2 219.5,252C 218.207,251.51 216.873,251.343 215.5,251.5C 236.187,244.834 255.854,235.834 274.5,224.5 Z"/></g>
<g><path style="opacity:1" fill="#141414" d="M 356.5,241.5 C 360.547,243.943 364.714,246.276 369,248.5C 370.394,247.387 371.561,246.053 372.5,244.5C 373.672,244.919 374.672,245.585 375.5,246.5C 372.709,250.582 370.042,254.749 367.5,259C 365.763,259.612 364.763,258.946 364.5,257C 365.615,255.607 366.115,254.107 366,252.5C 362.167,250 358.333,247.5 354.5,245C 355.823,244.184 356.489,243.017 356.5,241.5 Z"/></g>
<g><path style="opacity:1" fill="#111111" d="M 348.5,252.5 C 353.89,255.71 358.89,259.544 363.5,264C 361.875,266.82 359.875,267.153 357.5,265C 354.428,262.049 351.261,259.216 348,256.5C 347.805,255.181 347.972,253.847 348.5,252.5 Z"/></g>
<g><path style="opacity:1" fill="#131313" d="M 174.5,254.5 C 178.993,256.31 182.659,259.31 185.5,263.5C 181.398,267.723 177.065,271.723 172.5,275.5C 171.354,274.855 170.354,274.022 169.5,273C 173.016,269.651 176.349,266.151 179.5,262.5C 177.684,260.183 175.684,258.016 173.5,256C 174.056,255.617 174.389,255.117 174.5,254.5 Z"/></g>
<g><path style="opacity:1" fill="#a3a3a3" d="M 209.5,255.5 C 204.906,255.865 200.573,256.865 196.5,258.5C 195.596,257.791 195.263,256.791 195.5,255.5C 200.167,255.5 204.833,255.5 209.5,255.5 Z"/></g>
<g><path style="opacity:1" fill="#121212" d="M 343.5,259.5 C 348.791,262.791 353.124,267.124 356.5,272.5C 356.291,273.086 355.957,273.586 355.5,274C 350.465,274.418 345.465,274.418 340.5,274C 342.333,275.833 344.167,277.667 346,279.5C 346.854,281.607 346.188,282.941 344,283.5C 339.9,279.4 335.733,275.233 331.5,271C 332.529,269.302 334.029,268.468 336,268.5C 347.519,271.309 349.352,269.143 341.5,262C 342.381,261.292 343.047,260.458 343.5,259.5 Z"/></g>
<g><path style="opacity:1" fill="#cbcbcb" d="M 297.5,241.5 C 296.871,246.682 296.871,251.682 297.5,256.5C 296.052,264.303 293.385,271.637 289.5,278.5C 290.7,279.292 292.033,279.292 293.5,278.5C 292.365,280.213 290.698,280.88 288.5,280.5C 288.768,278.901 288.434,277.568 287.5,276.5C 292.345,265.177 295.679,253.511 297.5,241.5 Z"/></g>
<g><path style="opacity:1" fill="#121212" d="M 187.5,265.5 C 189.575,268.193 191.575,271.026 193.5,274C 194.966,274.635 196.3,275.469 197.5,276.5C 199.945,275.035 201.945,275.535 203.5,278C 197.833,281.167 192.167,284.333 186.5,287.5C 184.625,286.46 183.292,284.96 182.5,283C 183.944,277.048 185.611,271.215 187.5,265.5 Z"/></g>
<g><path style="opacity:1" fill="#dedede" d="M 188.5,275.5 C 190.645,275.738 192.312,276.738 193.5,278.5C 191.578,279.711 189.745,281.044 188,282.5C 187.666,280.153 187.833,277.819 188.5,275.5 Z"/></g>
<g><path style="opacity:1" fill="#151515" d="M 322.5,276.5 C 329.547,275.349 333.88,278.182 335.5,285C 334.455,291.879 330.455,295.379 323.5,295.5C 323.5,294.167 323.5,292.833 323.5,291.5C 330.575,290.673 332.242,287.173 328.5,281C 323.841,279.349 321.174,280.849 320.5,285.5C 322.103,285.312 323.437,285.812 324.5,287C 322.833,288.167 321.167,289.333 319.5,290.5C 318.035,288.401 316.701,286.234 315.5,284C 315.862,282.775 316.362,281.609 317,280.5C 319.015,279.303 320.849,277.97 322.5,276.5 Z"/></g>
<g><path style="opacity:1" fill="#5f5f5f" d="M 230.5,278.5 C 234.162,278.723 237.495,279.723 240.5,281.5C 236.838,281.277 233.505,280.277 230.5,278.5 Z"/></g>
<g><path style="opacity:1" fill="#161616" d="M 203.5,279.5 C 210.298,279.723 214.631,283.056 216.5,289.5C 214.827,297.173 210.16,300.006 202.5,298C 197.662,296.314 196.829,293.814 200,290.5C 202.262,294.32 205.429,295.32 209.5,293.5C 213.085,287.054 211.085,283.721 203.5,283.5C 203.5,282.167 203.5,280.833 203.5,279.5 Z"/></g>
<g><path style="opacity:1" fill="#676767" d="M 240.5,281.5 C 244.79,281.198 248.79,281.864 252.5,283.5C 248.21,283.802 244.21,283.136 240.5,281.5 Z"/></g>
<g><path style="opacity:1" fill="#060606" d="M 183.5,307.5 C 191.798,306.829 199.798,307.995 207.5,311C 208.574,311.739 209.241,312.739 209.5,314C 208.293,317.589 206.459,320.755 204,323.5C 197.729,320.206 191.395,319.872 185,322.5C 183.959,325.636 184.793,328.136 187.5,330C 192.833,332.667 198.167,335.333 203.5,338C 212.021,344.88 213.855,353.38 209,363.5C 206.072,367.381 202.239,369.881 197.5,371C 186.835,372.919 176.835,371.253 167.5,366C 166.426,365.261 165.759,364.261 165.5,363C 167.22,359.05 169.554,355.55 172.5,352.5C 178.298,357.57 184.965,359.403 192.5,358C 196.104,356.666 197.271,354.166 196,350.5C 194.442,348.641 192.609,347.141 190.5,346C 181.783,343.566 175.283,338.399 171,330.5C 169.433,319.629 173.6,311.963 183.5,307.5 Z"/></g>
<g><path style="opacity:1" fill="#060606" d="M 262.5,307.5 C 272.228,306.16 281.228,307.993 289.5,313C 287.698,316.781 285.531,320.281 283,323.5C 276.729,320.206 270.395,319.872 264,322.5C 262.959,325.636 263.793,328.136 266.5,330C 273.73,332.735 280.397,336.402 286.5,341C 293.732,350.819 292.732,359.819 283.5,368C 270.827,373.203 258.493,372.537 246.5,366C 245.426,365.261 244.759,364.261 244.5,363C 246.22,359.05 248.554,355.55 251.5,352.5C 257.298,357.57 263.965,359.403 271.5,358C 275.104,356.666 276.271,354.166 275,350.5C 273.442,348.641 271.609,347.141 269.5,346C 260.783,343.566 254.283,338.399 250,330.5C 248.959,325.56 249.626,320.894 252,316.5C 255.078,312.915 258.578,309.915 262.5,307.5 Z"/></g>
<g><path style="opacity:1" fill="#050505" d="M 383.5,307.5 C 403.346,304.667 416.513,312.667 423,331.5C 424.956,360.545 411.456,373.711 382.5,371C 365.055,363.621 357.889,350.455 361,331.5C 364.956,320.048 372.456,312.048 383.5,307.5 Z"/></g>
<g><path style="opacity:1" fill="#010101" d="M 55.5,308.5 C 65.1724,308.334 74.8391,308.5 84.5,309C 96.3117,312.447 101.145,320.28 99,332.5C 96.8333,340 92,344.833 84.5,347C 79.5111,347.499 74.5111,347.666 69.5,347.5C 69.5,355.167 69.5,362.833 69.5,370.5C 64.8333,370.5 60.1667,370.5 55.5,370.5C 55.5,349.833 55.5,329.167 55.5,308.5 Z"/></g>
<g><path style="opacity:1" fill="#020202" d="M 125.5,348.5 C 125.217,347.711 124.717,347.044 124,346.5C 123.5,354.493 123.334,362.493 123.5,370.5C 118.833,370.5 114.167,370.5 109.5,370.5C 109.5,349.833 109.5,329.167 109.5,308.5C 119.506,308.334 129.506,308.5 139.5,309C 151.237,313.862 155.07,322.362 151,334.5C 148.768,339.731 144.935,343.231 139.5,345C 146.5,353.333 153.5,361.667 160.5,370C 154.5,370.667 148.5,370.667 142.5,370C 136.693,362.855 131.027,355.688 125.5,348.5 Z"/></g>
<g><path style="opacity:1" fill="#000000" d="M 315.5,308.5 C 315.5,316.833 315.5,325.167 315.5,333.5C 322.5,333.5 329.5,333.5 336.5,333.5C 336.5,325.167 336.5,316.833 336.5,308.5C 341.167,308.5 345.833,308.5 350.5,308.5C 350.5,329.167 350.5,349.833 350.5,370.5C 345.833,370.5 341.167,370.5 336.5,370.5C 336.5,362.167 336.5,353.833 336.5,345.5C 329.5,345.5 322.5,345.5 315.5,345.5C 315.5,353.833 315.5,362.167 315.5,370.5C 310.833,370.5 306.167,370.5 301.5,370.5C 301.5,349.833 301.5,329.167 301.5,308.5C 306.167,308.5 310.833,308.5 315.5,308.5 Z"/></g>
<g><path style="opacity:1" fill="#000000" d="M 429.5,308.5 C 444.167,308.5 458.833,308.5 473.5,308.5C 473.5,312.5 473.5,316.5 473.5,320.5C 468.5,320.5 463.5,320.5 458.5,320.5C 458.5,337.167 458.5,353.833 458.5,370.5C 453.833,370.5 449.167,370.5 444.5,370.5C 444.5,353.833 444.5,337.167 444.5,320.5C 439.5,320.5 434.5,320.5 429.5,320.5C 429.5,316.5 429.5,312.5 429.5,308.5 Z"/></g>
<g><path style="opacity:1" fill="#f6f6f6" d="M 69.5,319.5 C 75.4297,318.341 80.263,320.007 84,324.5C 85.7095,330.469 83.5429,334.303 77.5,336C 74.854,336.497 72.1873,336.664 69.5,336.5C 69.5,330.833 69.5,325.167 69.5,319.5 Z"/></g>
<g><path style="opacity:1" fill="#9b9b9b" d="M 124.5,319.5 C 124.5,324.833 124.5,330.167 124.5,335.5C 126.167,335.5 127.833,335.5 129.5,335.5C 127.735,336.461 125.735,336.795 123.5,336.5C 123.178,330.642 123.511,324.975 124.5,319.5 Z"/></g>
<g><path style="opacity:1" fill="#f8f8f8" d="M 124.5,319.5 C 134.976,318.274 138.809,322.607 136,332.5C 134.266,334.451 132.099,335.451 129.5,335.5C 127.833,335.5 126.167,335.5 124.5,335.5C 124.5,330.167 124.5,324.833 124.5,319.5 Z"/></g>
<g><path style="opacity:1" fill="#f8f8f8" d="M 387.5,320.5 C 403.032,320.876 409.866,328.876 408,344.5C 401.499,360.282 391.832,362.615 379,351.5C 372.413,338.444 375.246,328.111 387.5,320.5 Z"/></g>
<g><path style="opacity:1" fill="#a2a2a2" d="M 315.5,308.5 C 316.492,316.316 316.826,324.316 316.5,332.5C 322.833,332.5 329.167,332.5 335.5,332.5C 335.174,324.316 335.508,316.316 336.5,308.5C 336.5,316.833 336.5,325.167 336.5,333.5C 329.5,333.5 322.5,333.5 315.5,333.5C 315.5,325.167 315.5,316.833 315.5,308.5 Z"/></g>
<g><path style="opacity:1" fill="#acacac" d="M 336.5,370.5 C 335.508,362.684 335.174,354.684 335.5,346.5C 329.167,346.5 322.833,346.5 316.5,346.5C 316.826,354.684 316.492,362.684 315.5,370.5C 315.5,362.167 315.5,353.833 315.5,345.5C 322.5,345.5 329.5,345.5 336.5,345.5C 336.5,353.833 336.5,362.167 336.5,370.5 Z"/></g>
<g><path style="opacity:1" fill="#a9a9a9" d="M 125.5,348.5 C 124.833,355.833 124.167,363.167 123.5,370.5C 123.334,362.493 123.5,354.493 124,346.5C 124.717,347.044 125.217,347.711 125.5,348.5 Z"/></g>
<g><path style="opacity:1" fill="#181818" d="M 331.5,384.5 C 336.508,384.356 336.674,385.356 332,387.5C 330.317,386.824 330.15,385.824 331.5,384.5 Z"/></g>
<g><path style="opacity:1" fill="#161616" d="M 122.5,385.5 C 125.187,385.336 127.854,385.503 130.5,386C 132.767,387.081 132.934,388.581 131,390.5C 126.147,387.17 122.981,388.337 121.5,394C 121.439,395.711 122.106,397.044 123.5,398C 126.236,398.422 128.902,398.422 131.5,398C 132.833,399 132.833,400 131.5,401C 125.956,403.781 121.456,402.614 118,397.5C 116.478,392.241 117.978,388.241 122.5,385.5 Z"/></g>
<g><path style="opacity:1" fill="#828282" d="M 152.5,384.5 C 152.5,390.167 152.5,395.833 152.5,401.5C 153.5,401.5 154.5,401.5 155.5,401.5C 155.5,395.833 155.5,390.167 155.5,384.5C 156.49,390.31 156.823,396.31 156.5,402.5C 154.833,402.5 153.167,402.5 151.5,402.5C 151.177,396.31 151.51,390.31 152.5,384.5 Z"/></g>
<g><path style="opacity:1" fill="#000000" d="M 152.5,384.5 C 153.5,384.5 154.5,384.5 155.5,384.5C 155.5,390.167 155.5,395.833 155.5,401.5C 154.5,401.5 153.5,401.5 152.5,401.5C 152.5,395.833 152.5,390.167 152.5,384.5 Z"/></g>
<g><path style="opacity:1" fill="#000000" d="M 195.5,384.5 C 195.5,390.167 195.5,395.833 195.5,401.5C 194.5,401.5 193.5,401.5 192.5,401.5C 192.5,395.833 192.5,390.167 192.5,384.5C 193.5,384.5 194.5,384.5 195.5,384.5 Z"/></g>
<g><path style="opacity:1" fill="#626262" d="M 195.5,384.5 C 196.49,390.31 196.823,396.31 196.5,402.5C 194.901,402.768 193.568,402.434 192.5,401.5C 193.5,401.5 194.5,401.5 195.5,401.5C 195.5,395.833 195.5,390.167 195.5,384.5 Z"/></g>
<g><path style="opacity:1" fill="#141414" d="M 229.5,384.5 C 229.5,390.167 229.5,395.833 229.5,401.5C 228.5,401.5 227.5,401.5 226.5,401.5C 225.922,400.453 225.256,400.62 224.5,402C 217.844,402.342 215.011,399.175 216,392.5C 218.739,388.218 222.073,387.552 226,390.5C 226.495,388.527 226.662,386.527 226.5,384.5C 227.5,384.5 228.5,384.5 229.5,384.5 Z"/></g>
<g><path style="opacity:1" fill="#5e5e5e" d="M 288.5,384.5 C 288.5,390.167 288.5,395.833 288.5,401.5C 289.5,401.5 290.5,401.5 291.5,401.5C 290.432,402.434 289.099,402.768 287.5,402.5C 287.177,396.31 287.51,390.31 288.5,384.5 Z"/></g>
<g><path style="opacity:1" fill="#141414" d="M 288.5,384.5 C 289.5,384.5 290.5,384.5 291.5,384.5C 291.338,386.527 291.505,388.527 292,390.5C 297.623,387.24 301.123,388.907 302.5,395.5C 301.193,401.805 297.526,403.805 291.5,401.5C 290.5,401.5 289.5,401.5 288.5,401.5C 288.5,395.833 288.5,390.167 288.5,384.5 Z"/></g>
<g><path style="opacity:1" fill="#505050" d="M 322.5,384.5 C 322.5,390.167 322.5,395.833 322.5,401.5C 323.5,401.5 324.5,401.5 325.5,401.5C 324.432,402.434 323.099,402.768 321.5,402.5C 321.177,396.31 321.51,390.31 322.5,384.5 Z"/></g>
<g><path style="opacity:1" fill="#000000" d="M 322.5,384.5 C 323.5,384.5 324.5,384.5 325.5,384.5C 325.5,390.167 325.5,395.833 325.5,401.5C 324.5,401.5 323.5,401.5 322.5,401.5C 322.5,395.833 322.5,390.167 322.5,384.5 Z"/></g>
<g><path style="opacity:1" fill="#0d0d0d" d="M 364.5,384.5 C 365.833,384.5 367.167,384.5 368.5,384.5C 368.5,385.5 368.5,386.5 368.5,387.5C 367.167,387.5 365.833,387.5 364.5,387.5C 364.5,386.5 364.5,385.5 364.5,384.5 Z"/></g>
<g><path style="opacity:1" fill="#161616" d="M 354.5,386.5 C 356.048,386.821 356.715,387.821 356.5,389.5C 357.833,389.5 359.167,389.5 360.5,389.5C 360.5,390.5 360.5,391.5 360.5,392.5C 359.167,392.5 357.833,392.5 356.5,392.5C 356.5,394.5 356.5,396.5 356.5,398.5C 357.833,398.5 359.167,398.5 360.5,398.5C 359.539,402.996 357.206,403.663 353.5,400.5C 352.788,397.352 352.121,394.186 351.5,391C 352.315,389.357 353.315,387.857 354.5,386.5 Z"/></g>
<g><path style="opacity:1" fill="#1e1e1e" d="M 137.5,388.5 C 147.278,387.983 150.945,392.65 148.5,402.5C 146.549,402.773 145.049,402.107 144,400.5C 141.333,403.167 138.667,403.167 136,400.5C 135.175,398.299 135.675,396.466 137.5,395C 146.505,393.797 146.172,392.964 136.5,392.5C 136.433,391.041 136.766,389.708 137.5,388.5 Z"/></g>
<g><path style="opacity:1" fill="#1c1c1c" d="M 163.5,388.5 C 166.482,388.104 169.149,388.771 171.5,390.5C 171.291,391.086 170.957,391.586 170.5,392C 168.5,392.333 166.5,392.667 164.5,393C 163.167,394.667 163.167,396.333 164.5,398C 166.764,398.236 168.931,398.736 171,399.5C 171.456,400.744 170.956,401.577 169.5,402C 162.333,402.833 159.167,399.667 160,392.5C 161.376,391.295 162.542,389.962 163.5,388.5 Z"/></g>
<g><path style="opacity:1" fill="#0e0e0e" d="M 183.5,397.5 C 184.473,395.052 184.806,392.385 184.5,389.5C 185.5,389.5 186.5,389.5 187.5,389.5C 187.5,393.5 187.5,397.5 187.5,401.5C 186.5,401.5 185.5,401.5 184.5,401.5C 184.565,401.062 184.399,400.728 184,400.5C 180.58,403.434 177.58,403.1 175,399.5C 174.501,395.848 174.335,392.182 174.5,388.5C 175.833,388.5 177.167,388.5 178.5,388.5C 178.335,391.518 178.502,394.518 179,397.5C 180.616,398.801 182.116,398.801 183.5,397.5 Z"/></g>
<g><path style="opacity:1" fill="#7c7c7c" d="M 184.5,401.5 C 185.5,401.5 186.5,401.5 187.5,401.5C 187.5,397.5 187.5,393.5 187.5,389.5C 186.5,389.5 185.5,389.5 184.5,389.5C 184.806,392.385 184.473,395.052 183.5,397.5C 183.5,394.5 183.5,391.5 183.5,388.5C 185.167,388.5 186.833,388.5 188.5,388.5C 188.5,393.167 188.5,397.833 188.5,402.5C 186.901,402.768 185.568,402.434 184.5,401.5 Z"/></g>
<g><path style="opacity:1" fill="#1e1e1e" d="M 201.5,388.5 C 211.278,387.983 214.945,392.65 212.5,402.5C 210.549,402.773 209.049,402.107 208,400.5C 205.333,403.167 202.667,403.167 200,400.5C 199.175,398.299 199.675,396.466 201.5,395C 210.505,393.797 210.172,392.964 200.5,392.5C 200.433,391.041 200.766,389.708 201.5,388.5 Z"/></g>
<g><path style="opacity:1" fill="#545454" d="M 229.5,384.5 C 230.49,390.31 230.823,396.31 230.5,402.5C 228.901,402.768 227.568,402.434 226.5,401.5C 227.5,401.5 228.5,401.5 229.5,401.5C 229.5,395.833 229.5,390.167 229.5,384.5 Z"/></g>
<g><path style="opacity:1" fill="#1c1c1c" d="M 238.5,388.5 C 249.158,389.399 251.158,393.899 244.5,402C 236.83,403.327 233.33,400.161 234,392.5C 235.397,390.93 236.897,389.596 238.5,388.5 Z"/></g>
<g><path style="opacity:1" fill="#797979" d="M 255.5,389.5 C 254.5,389.5 253.5,389.5 252.5,389.5C 252.5,393.5 252.5,397.5 252.5,401.5C 253.5,401.5 254.5,401.5 255.5,401.5C 255.198,398.941 255.532,396.607 256.5,394.5C 256.5,397.167 256.5,399.833 256.5,402.5C 254.833,402.5 253.167,402.5 251.5,402.5C 251.5,397.833 251.5,393.167 251.5,388.5C 253.099,388.232 254.432,388.566 255.5,389.5 Z"/></g>
<g><path style="opacity:1" fill="#040404" d="M 255.5,389.5 C 256.858,389.822 258.525,389.822 260.5,389.5C 260.5,390.5 260.5,391.5 260.5,392.5C 258.62,392.229 257.287,392.896 256.5,394.5C 255.532,396.607 255.198,398.941 255.5,401.5C 254.5,401.5 253.5,401.5 252.5,401.5C 252.5,397.5 252.5,393.5 252.5,389.5C 253.5,389.5 254.5,389.5 255.5,389.5 Z"/></g>
<g><path style="opacity:1" fill="#141414" d="M 275.5,393.5 C 275.5,396.167 275.5,398.833 275.5,401.5C 273.602,400.904 271.935,400.904 270.5,401.5C 264.584,403.082 262.584,400.916 264.5,395C 273.811,393.845 273.811,393.012 264.5,392.5C 264.73,389.535 266.397,388.202 269.5,388.5C 272.722,388.724 274.722,390.39 275.5,393.5 Z"/></g>
<g><path style="opacity:1" fill="#151515" d="M 317.5,393.5 C 317.5,396.167 317.5,398.833 317.5,401.5C 315.602,400.904 313.935,400.904 312.5,401.5C 306.584,403.082 304.584,400.916 306.5,395C 315.811,393.845 315.811,393.012 306.5,392.5C 306.73,389.535 308.397,388.202 311.5,388.5C 314.722,388.724 316.722,390.39 317.5,393.5 Z"/></g>
<g><path style="opacity:1" fill="#5d5d5d" d="M 333.5,389.5 C 332.5,389.5 331.5,389.5 330.5,389.5C 330.5,393.5 330.5,397.5 330.5,401.5C 331.5,401.5 332.5,401.5 333.5,401.5C 332.432,402.434 331.099,402.768 329.5,402.5C 329.5,397.833 329.5,393.167 329.5,388.5C 331.099,388.232 332.432,388.566 333.5,389.5 Z"/></g>
<g><path style="opacity:1" fill="#000000" d="M 333.5,389.5 C 333.5,393.5 333.5,397.5 333.5,401.5C 332.5,401.5 331.5,401.5 330.5,401.5C 330.5,397.5 330.5,393.5 330.5,389.5C 331.5,389.5 332.5,389.5 333.5,389.5 Z"/></g>
<g><path style="opacity:1" fill="#151515" d="M 340.5,388.5 C 343.38,388.033 345.713,388.866 347.5,391C 347.167,391.5 346.833,392 346.5,392.5C 344.802,391.319 343.135,391.319 341.5,392.5C 343.908,393.453 346.075,394.787 348,396.5C 349.033,399.217 348.2,401.051 345.5,402C 342.901,402.769 340.401,402.602 338,401.5C 337.251,400.365 337.417,399.365 338.5,398.5C 340.516,399.706 342.516,399.706 344.5,398.5C 342.887,396.912 340.887,395.912 338.5,395.5C 336.911,392.412 337.578,390.078 340.5,388.5 Z"/></g>
<g><path style="opacity:1" fill="#101010" d="M 364.5,388.5 C 365.833,388.5 367.167,388.5 368.5,388.5C 368.5,393.167 368.5,397.833 368.5,402.5C 367.167,402.5 365.833,402.5 364.5,402.5C 364.5,397.833 364.5,393.167 364.5,388.5 Z"/></g>
<g><path style="opacity:1" fill="#1d1d1d" d="M 376.5,388.5 C 378.591,388.318 380.591,388.652 382.5,389.5C 383.386,390.325 383.719,391.325 383.5,392.5C 381.167,392.5 378.833,392.5 376.5,392.5C 376.5,394.5 376.5,396.5 376.5,398.5C 378.833,398.5 381.167,398.5 383.5,398.5C 383.845,401.488 382.512,402.821 379.5,402.5C 373.137,401.962 370.971,398.628 373,392.5C 374.102,391.051 375.269,389.718 376.5,388.5 Z"/></g>
<g><path style="opacity:1" fill="#181818" d="M 388.5,388.5 C 398.725,387.741 402.391,392.408 399.5,402.5C 397.549,402.773 396.049,402.107 395,400.5C 389.586,404.045 386.92,402.712 387,396.5C 387.5,396 388,395.5 388.5,395C 390.9,394.814 393.234,394.314 395.5,393.5C 393.751,391.469 391.751,391.135 389.5,392.5C 388.571,391.311 388.238,389.978 388.5,388.5 Z"/></g>
<g><path style="opacity:1" fill="#e8e8e8" d="M 220.5,392.5 C 225.123,391.408 226.956,393.075 226,397.5C 220.42,399.752 218.587,398.085 220.5,392.5 Z"/></g>
<g><path style="opacity:1" fill="#eaeaea" d="M 238.5,392.5 C 243.123,391.408 244.956,393.075 244,397.5C 238.42,399.752 236.587,398.085 238.5,392.5 Z"/></g>
<g><path style="opacity:1" fill="#e7e7e7" d="M 292.5,392.5 C 297.123,391.408 298.956,393.075 298,397.5C 292.42,399.752 290.587,398.085 292.5,392.5 Z"/></g>
<g><path style="opacity:1" fill="#929292" d="M 275.5,393.5 C 276.477,396.287 276.81,399.287 276.5,402.5C 274.379,402.675 272.379,402.341 270.5,401.5C 271.935,400.904 273.602,400.904 275.5,401.5C 275.5,398.833 275.5,396.167 275.5,393.5 Z"/></g>
<g><path style="opacity:1" fill="#e3e3e3" d="M 139.5,396.5 C 145.764,396.614 145.764,397.614 139.5,399.5C 139.5,398.5 139.5,397.5 139.5,396.5 Z"/></g>
<g><path style="opacity:1" fill="#dddddd" d="M 203.5,396.5 C 205.199,396.34 206.866,396.506 208.5,397C 207.383,398.892 205.716,399.725 203.5,399.5C 203.5,398.5 203.5,397.5 203.5,396.5 Z"/></g>
<g><path style="opacity:1" fill="#e3e3e3" d="M 267.5,396.5 C 268.978,396.238 270.311,396.571 271.5,397.5C 270.081,399.915 268.415,400.081 266.5,398C 267.056,397.617 267.389,397.117 267.5,396.5 Z"/></g>
<g><path style="opacity:1" fill="#e2e2e2" d="M 309.5,396.5 C 310.978,396.238 312.311,396.571 313.5,397.5C 312.081,399.915 310.415,400.081 308.5,398C 309.056,397.617 309.389,397.117 309.5,396.5 Z"/></g>
<g><path style="opacity:1" fill="#dddddd" d="M 390.5,396.5 C 392.199,396.34 393.866,396.506 395.5,397C 394.383,398.892 392.716,399.725 390.5,399.5C 390.5,398.5 390.5,397.5 390.5,396.5 Z"/></g>
<g><path style="opacity:1" fill="#8f8f8f" d="M 317.5,393.5 C 318.477,396.287 318.81,399.287 318.5,402.5C 316.379,402.675 314.379,402.341 312.5,401.5C 313.935,400.904 315.602,400.904 317.5,401.5C 317.5,398.833 317.5,396.167 317.5,393.5 Z"/></g>
</svg>
